<svg xmlns="http://www.w3.org/2000/svg" viewBox="0 0 512 512"  xmlns:v="https://vecta.io/nano"><path d="M488.505 78.37l-89.102-37.12a40.26 40.26 0 0 0-30.757.001l-42.78 17.82c-3.824 1.594-5.633 5.984-4.04 9.808a7.5 7.5 0 0 0 9.808 4.04l42.78-17.82c6.105-2.544 13.112-2.545 19.222-.001l89.097 37.12C491.4 95.83 497 103.96 497 112.923v320.75c0 12.473-10.713 22.62-23.88 22.62h-12.16a7.5 7.5 0 1 0 0 15h12.16c21.438 0 38.88-16.876 38.88-37.62v-320.75c0-15.036-9.222-28.598-23.495-34.552zM428.27 456.294H302.25a32.06 32.06 0 0 0 8.03-21.3c0-7.903-2.86-15.146-7.595-20.762a32.4 32.4 0 0 0 8.19-5.955 32.05 32.05 0 0 0 9.446-22.813c0-8.216-3.092-15.72-8.167-21.422a32.32 32.32 0 0 0 6.949-5.285 32.04 32.04 0 0 0 9.447-22.813 32.14 32.14 0 0 0-8.119-21.374 32.56 32.56 0 0 0 7.069-5.349 32.08 32.08 0 0 0 9.44-22.808c0-17.794-14.472-32.27-32.26-32.27h-33.63v-141.22c0-8.964 5.6-17.093 14.263-20.706l13.64-5.68a7.5 7.5 0 1 0-5.766-13.848l-13.647 5.68c-14.27 5.953-23.492 19.516-23.492 34.552v141.22H224.7c10.435-32.976 9.547-67.4-2.63-107.334-1.85-6.05-5.53-11.23-10.645-14.983a29.27 29.27 0 0 0-17.428-5.703c-8.138 0-15.705 3.25-21.3 9.15s-8.453 13.624-8.03 21.748c2.345 45.097-18.457 60.62-47.248 82.104-9.48 7.073-19.84 14.8-30.02 24.296v-9.83a7.5 7.5 0 0 0-7.5-7.5H7.5a7.5 7.5 0 0 0-7.5 7.5v212.7a7.5 7.5 0 0 0 7.5 7.5h72.4a7.5 7.5 0 0 0 7.5-7.5v-18.868c14.245 1.355 24.65 4.194 34.757 11.94 6.636 5.086 14.816 7.887 23.033 7.887h132.27c5.404 2.634 11.395 4.03 17.468 4.03h133.34a7.5 7.5 0 0 0 7.5-7.5 7.5 7.5 0 0 0-7.499-7.499zm-296.988-8.824c-14.142-10.837-29.256-13.848-43.882-15.1v-87.575a7.5 7.5 0 1 0-15 0v114.02H15v-197.7h57.4v51a7.5 7.5 0 1 0 15 0V284.73c12.546-13.845 25.98-23.87 38.992-33.58 28.8-21.497 56.02-41.803 53.258-94.905a14.23 14.23 0 0 1 3.93-10.64c2.742-2.886 6.446-4.48 10.43-4.48 3.103 0 6.06.967 8.553 2.797a14.06 14.06 0 0 1 5.174 7.27c12.403 40.685 12.2 74.915-.6 107.724a7.5 7.5 0 0 0 .792 6.959c1.397 2.047 3.715 3.27 6.193 3.27h90.57c9.518 0 17.26 7.747 17.26 17.27a17.17 17.17 0 0 1-5.048 12.2c-3.27 3.262-7.606 5.06-12.213 5.06h-30.8a7.5 7.5 0 1 0 0 15h22.42c9.517 0 17.26 7.747 17.26 17.27 0 4.613-1.794 8.948-5.054 12.207s-7.593 5.053-12.206 5.053h-22.42a7.5 7.5 0 1 0 0 15h14.2c9.518 0 17.26 7.743 17.26 17.26a17.15 17.15 0 0 1-5.053 12.207c-3.266 3.266-7.602 5.063-12.208 5.063h-22.42a7.5 7.5 0 1 0 0 15h12.38c9.518 0 17.26 7.743 17.26 17.26 0 4.612-1.797 8.952-5.047 12.2-3.046 3.04-7.858 4.978-11.46 5.042-.25.004-133.584.018-133.584.018-4.936-.005-9.876-1.707-13.908-4.798zm279.8-331.215c0-15.76-12.822-28.582-28.582-28.582s-28.582 12.822-28.582 28.582 12.822 28.582 28.582 28.582 28.582-12.822 28.582-28.582zm-42.164 0a13.6 13.6 0 0 1 13.582-13.582 13.6 13.6 0 0 1 13.582 13.582 13.6 13.6 0 0 1-13.582 13.582 13.6 13.6 0 0 1-13.582-13.582zm18.268 255.9h-13.45a12.87 12.87 0 0 1-12.85-12.85 7.5 7.5 0 1 0-15 0c0 15.097 12.076 27.417 27.074 27.83v16.598a7.5 7.5 0 1 0 15 0v-16.598c15-.413 27.075-12.733 27.075-27.83v-10.383a22.11 22.11 0 0 0-15.317-21.082l-33.88-11.005a7.15 7.15 0 0 1-4.952-6.815v-14.867a10.45 10.45 0 0 1 10.435-10.436h18.28a10.45 10.45 0 0 1 10.435 10.436 7.5 7.5 0 1 0 15 0c0-14.025-11.4-25.436-25.435-25.436h-1.64V253.15a7.5 7.5 0 1 0-15 0v16.578h-1.64c-14.024 0-25.435 11.4-25.435 25.436v14.867a22.11 22.11 0 0 0 15.317 21.081l33.88 11.005a7.15 7.15 0 0 1 4.953 6.816v10.383c.002 7.085-5.763 12.85-12.848 12.85z"/></svg>