<svg xmlns="http://www.w3.org/2000/svg" xmlns:xlink="http://www.w3.org/1999/xlink" viewBox="0 0 512.364 512.364" xmlns:v="https://vecta.io/nano"><path d="M83.767 209.028c4.952 4.63 15.48 5.638 21.35-1.24l37.573-42.868c5.458-6.226 4.83-15.693-1.404-21.145s-15.71-4.825-21.166 1.402l-27.53 31.41-7.38-6.67c-6.144-5.552-15.628-5.08-21.187 1.058s-5.084 15.612 1.06 21.165z"/><use xlink:href="#B"/><use xlink:href="#C"/><path d="M83.767 380.808c4.952 4.63 15.48 5.638 21.35-1.24L142.69 336.7c5.458-6.226 4.83-15.693-1.404-21.145s-15.71-4.825-21.166 1.402l-27.53 31.41-7.38-6.67c-6.144-5.552-15.63-5.078-21.187 1.058s-5.084 15.613 1.06 21.165z"/><use xlink:href="#B" y="171.725"/><use xlink:href="#C" y="170.837"/><path d="M475.52 0H189.903c-2.718.013-5.967.548-9.176 1.796a49.32 49.32 0 0 0-9.297-.884c-12.868 0-25.012 4.96-34.193 13.964-5.543 5.436-9.632 11.98-12.055 19.137H109.15c-11.322 0-20.594 8.832-21.333 19.96H34.92C15.803 53.972.25 69.508.25 88.605v389.127c0 19.097 15.552 34.633 34.668 34.633h273.023c15.992 0 29.483-10.876 33.468-25.61h136.63c18.027-1.093 34.407-17.46 34.07-36.55V36.55C512.11 16.397 495.695 0 475.52 0zM117.744 63.982h19.878c8.167 0 14.833-6.527 14.997-14.684.204-10.156 8.643-18.418 18.81-18.418s18.607 8.262 18.812 18.418c.164 8.157 6.83 14.684 14.997 14.684h19.878v16.505H117.744zM312.6 477.73c0 2.572-2.094 4.664-4.668 4.664H34.92c-2.574 0-4.668-2.092-4.668-4.664V88.604c0-2.57 2.094-4.663 4.668-4.663h52.825v3.184c0 12.865 10.477 23.332 23.355 23.332h120.663c12.878 0 23.355-10.466 23.355-23.332V83.94h52.825c2.574 0 4.668 2.092 4.668 4.663zm169.5-27.53c0 3.342-2.5 6.148-5.816 6.527l-.43.056H342.6V88.604c0-19.096-15.552-34.633-34.668-34.633h-52.907c-.83-11.14-10.15-19.96-21.512-19.96h-15.845c-.465-1.374-1.01-2.718-1.597-4.043h259.44c3.633 0 6.59 2.953 6.59 6.582z"/><defs ><path id="B" d="M268.34 182.345h-86.55c-8.284 0-15 6.71-15 14.985s6.716 14.985 15 14.985h86.55c8.284 0 15-6.71 15-14.985s-6.716-14.985-15-14.985z"/><path id="C" d="M268.34 244.5H73.914c-8.284 0-15 6.71-15 14.985s6.716 14.985 15 14.985H268.34c8.284 0 15-6.71 15-14.985s-6.716-14.985-15-14.985z"/></defs></svg>