<svg  viewBox="0 -64 494.19299 494"  xmlns="http://www.w3.org/2000/svg"><path d="m110.988281 202.683594c-27.5 0-49.789062 22.292968-49.789062 49.792968 0 27.496094 22.292969 49.789063 49.789062 49.789063 27.5 0 49.789063-22.292969 49.789063-49.792969.144531-13.246094-5.054688-25.996094-14.425782-35.363281-9.367187-9.367187-22.113281-14.566406-35.363281-14.425781zm0 87.582031c-20.871093 0-37.789062-16.921875-37.789062-37.792969 0-20.867187 16.917969-37.789062 37.789062-37.789062 20.871094 0 37.789063 16.921875 37.789063 37.789062.109375 10.058594-3.835938 19.734375-10.949219 26.84375-7.109375 7.109375-16.785156 11.058594-26.839844 10.949219zm0 0"/><path d="m450.472656.0976562h-301.769531c-24.132813.0273438-43.6875 19.5859378-43.714844 43.7187498v95.53125h-16.328125c-4.433594-.0625-8.171875 3.289063-8.59375 7.703125l-2.441406 26.988281c-6.117188 2.636719-11.910156 5.96875-17.265625 9.933594l-24.398437-11.222656c-.09375-.042969-.1875-.082031-.28125-.121094-4.007813-1.601562-8.882813.007813-10.820313 3.519532l-22.570313 38.859374c-2.3398432 3.96875-1.289062 9.0625 2.425782 11.785157l.121094.089843 21.921874 15.585938c-1.066406 6.613281-1.066406 13.351562-.007812 19.964844l-22.960938 15.632812c-.082031.054688-.160156.113282-.238281.171875-3.5937498 2.722657-4.605469 7.691407-2.367187 11.605469l22.652344 38.980469c1.058593 1.851562 2.738281 3.273437 4.742187 4.015625 2.160156.734375 4.53125.480468 6.484375-.699219l24.316406-11.191406c5.375 3.898437 11.136719 7.234375 17.191406 9.957031l2.4375 26.761719c.023438.277343.070313.558593.132813.832031.828125 4.046875 4.335937 6.992188 8.46875 7.097656h45.179687c4.429688.070313 8.171876-3.28125 8.589844-7.695312l2.449219-27c6.113281-2.632813 11.90625-5.960938 17.261719-9.917969l24.398437 11.222656c.101563.046875.199219.089844.300781.128907 3.984376 1.574218 8.855469-.039063 10.789063-3.523438l22.605469-38.914062c2.304687-3.949219 1.265625-8.996094-2.414063-11.714844l-19.179687-14.613282h252.882812c24.132813-.027343 43.691406-19.585937 43.71875-43.722656v-176.03125c-.027344-24.132812-19.585937-43.691406-43.71875-43.7187498zm-243.007812 286.0820318-19.675782 33.878906-25.050781-11.527344c-2.085937-.960938-4.53125-.644531-6.308593.808594l-1.28125 1.046875c-5.453126 4.25-11.476563 7.714843-17.890626 10.300781l-1.449218.621094c-2.027344.867187-3.414063 2.777344-3.613282 4.972656l-2.476562 27.320312h-39.03125l-2.488281-27.320312c-.199219-2.195312-1.585938-4.105469-3.613281-4.972656l-1.445313-.621094c-6.464844-2.753906-12.570313-6.289062-18.179687-10.527344l-1.261719-.945312c-1.761719-1.320313-4.109375-1.570313-6.109375-.648438l-24.976563 11.488282-19.609375-33.746094 22.222656-15.128906c.046876-.03125.09375-.066407.140626-.101563l1.359374-.984375c1.804688-1.304688 2.734376-3.503906 2.421876-5.707031l-.234376-1.636719c-1.28125-6.808594-1.277343-13.800781.007813-20.613281l.226563-1.597657c.316406-2.222656-.632813-4.433593-2.460938-5.734374l-22.664062-16.113282 19.632812-33.800781 25.054688 11.523437c2.085937.960938 4.53125.648438 6.308593-.804687l1.277344-1.050781c5.453125-4.246094 11.476563-7.714844 17.890625-10.296875l1.453125-.625c2.027344-.867188 3.414063-2.777344 3.613281-4.972657l2.472656-27.320312h17.015626c1.4375.582031 3.042968.582031 4.480468 0h17.535156l2.480469 27.320312c.203125 2.195313 1.589844 4.105469 3.617188 4.972657l1.449219.621093c6.46875 2.753907 12.570312 6.289063 18.175781 10.527344l1.261719.945313c1.765624 1.324219 4.109374 1.574219 6.113281.652343l25-11.5 20.109375 33.828126-22.636719 16.097656c-1.828125 1.300781-2.777344 3.515625-2.460937 5.738281l.226562 1.597656c.578125 3.417969.898438 6.871094.964844 10.332031 0 .675782-.03125 1.324219-.058594 1.972657-.976562 1.585937-1.152344 3.535156-.480469 5.265625-.128906 1-.269531 2.015625-.421875 3.082031l-.222656 1.542969c-.308594 2.15625.570312 4.308594 2.300781 5.628906zm274.726562-66.332032c-.019531 17.511719-14.210937 31.703125-31.71875 31.722656h-253.433594c-.070312-3.046874-.332031-6.085937-.773437-9.101562l21.972656-15.625c.046875-.03125.089844-.0625.132813-.101562 3.632812-2.734376 4.65625-7.75 2.386718-11.691407l-23.128906-38.898437c-2.589844-4.300782-7.191406-5.660156-11.25-3.339844l-24.3125 11.183594c-5.375-3.898438-11.140625-7.238282-17.199218-9.957032l-2.429688-26.757812c-.027344-.277344-.070312-.554688-.136719-.828125-.820312-4.054687-4.335937-7-8.46875-7.109375h-16.84375v-32.460938h365.210938zm0-124.964844h-365.203125v-30.867187h365.210938zm0-42.867187h-365.203125v-8.199219c.019531-17.507812 14.210938-31.699218 31.722657-31.71875h301.761718c17.511719.019532 31.699219 14.210938 31.71875 31.71875zm0 0"/><path d="m376.964844 224.882812c6.570312-.003906 13.039062-1.59375 18.859375-4.640624 17.175781 8.972656 38.292969 4.632812 50.539062-10.382813 12.246094-15.019531 12.246094-36.578125 0-51.59375-12.246093-15.019531-33.363281-19.355469-50.539062-10.382813-15.023438-7.832031-33.324219-5.566406-45.984375 5.691407-12.660156 11.261719-17.046875 29.171875-11.023438 45.007812 6.023438 15.835938 21.203125 26.300781 38.148438 26.300781zm29.949218-68.566406c11.746094-3.300781 24.296876 1.152344 31.335938 11.121094 7.039062 9.964844 7.039062 23.285156 0 33.25s-19.589844 14.421875-31.335938 11.121094c14.492188-15.660156 14.492188-39.835938 0-55.492188zm-29.949218-1.074218c15.917968 0 28.820312 12.902343 28.820312 28.820312s-12.902344 28.820312-28.820312 28.820312c-15.917969 0-28.820313-12.902343-28.820313-28.820312-.03125-7.652344 2.996094-15.003906 8.40625-20.414062 5.410157-5.410157 12.761719-8.4375 20.414063-8.40625zm0 0"/></svg>