<?xml version="1.0" encoding="iso-8859-1"?>
<!-- Generator: Adobe Illustrator 19.0.0, SVG Export Plug-In . SVG Version: 6.00 Build 0)  -->
<svg version="1.1" id="Capa_1" xmlns="http://www.w3.org/2000/svg" xmlns:xlink="http://www.w3.org/1999/xlink" x="0px" y="0px"
	 viewBox="0 0 512.001 512.001" style="enable-background:new 0 0 512.001 512.001;" xml:space="preserve">
<g>
	<g>
		<path d="M372.92,465.45c-0.13-0.64-0.32-1.27-0.57-1.88c-0.25-0.6-0.56-1.181-0.92-1.72c-0.36-0.55-0.78-1.06-1.24-1.52
			c-0.46-0.46-0.97-0.88-1.52-1.24c-0.54-0.36-1.12-0.67-1.73-0.92c-0.599-0.25-1.229-0.45-1.87-0.58
			c-1.289-0.26-2.619-0.26-3.909,0c-0.641,0.13-1.261,0.33-1.87,0.58c-0.601,0.25-1.181,0.56-1.721,0.92
			c-0.55,0.36-1.06,0.779-1.52,1.24c-0.46,0.46-0.88,0.97-1.25,1.52c-0.36,0.54-0.67,1.12-0.92,1.72c-0.25,0.61-0.44,1.24-0.57,1.88
			s-0.19,1.3-0.19,1.95s0.06,1.31,0.19,1.95c0.13,0.64,0.32,1.27,0.57,1.87c0.25,0.61,0.56,1.19,0.92,1.73
			c0.37,0.55,0.79,1.06,1.25,1.52c0.46,0.46,0.97,0.88,1.52,1.24c0.54,0.36,1.121,0.67,1.721,0.92c0.609,0.25,1.229,0.44,1.87,0.57
			c0.65,0.13,1.31,0.2,1.96,0.2c2.63,0,5.21-1.07,7.069-2.93c0.46-0.46,0.88-0.97,1.24-1.52c0.36-0.54,0.67-1.12,0.92-1.73
			c0.25-0.6,0.44-1.23,0.57-1.87s0.19-1.3,0.19-1.95S373.05,466.09,372.92,465.45z"/>
	</g>
</g>
<g>
	<g>
		<path d="M321.466,457.399H148.884c-5.522,0-10,4.477-10,10s4.478,10,10,10h172.582c5.522,0,10-4.477,10-10
			S326.988,457.399,321.466,457.399z"/>
	</g>
</g>
<g>
	<g>
		<path d="M215.72,70.706h-49.595c-3.789,0-5.395,4.293-5.395,8.228c0,4.531,1.951,8.466,5.395,8.466h15.843v64.749
			c0,3.816,4.478,5.724,8.954,5.724c4.478,0,8.955-1.908,8.955-5.724V87.4h15.843c3.444,0,5.395-3.935,5.395-8.466
			C221.115,74.999,219.509,70.706,215.72,70.706z"/>
	</g>
</g>
<g>
	<g>
		<path d="M281.728,148.929l-21.467-72.738c-1.262-4.173-6.429-6.2-11.71-6.2s-10.446,2.027-11.709,6.2l-21.353,72.738
			c-0.115,0.477-0.23,0.954-0.23,1.312c0,4.412,6.543,7.631,11.48,7.632c2.87,0,5.166-0.954,5.854-3.458l3.903-14.905h24.223
			l3.903,14.905c0.688,2.504,2.985,3.458,5.855,3.458c4.936,0,11.48-3.22,11.48-7.632
			C281.957,149.883,281.842,149.406,281.728,148.929z M240.171,125.2l8.38-31.957l8.38,31.957H240.171z"/>
	</g>
</g>
<g>
	<g>
		<path d="M348.194,146.067l-19.86-31.838l19.056-31.719c0.803-1.311,1.148-2.504,1.148-3.696c0-5.008-6.544-8.824-11.595-8.824
			c-2.525,0-4.248,0.954-5.395,3.1l-15.269,27.664L301.011,73.09c-1.148-2.146-2.87-3.1-5.395-3.1
			c-5.052,0-11.595,3.816-11.595,8.824c0,1.192,0.344,2.384,1.147,3.696l19.057,31.719l-19.86,31.838
			c-0.689,1.193-1.033,2.266-1.033,3.339c0,5.127,7.003,9.182,11.939,9.182c1.837,0,3.444-0.596,4.248-1.908l16.761-29.572
			l16.761,29.572c0.689,1.311,2.411,1.908,4.248,1.908c4.936,0,11.939-4.055,11.939-9.182
			C349.228,148.333,348.884,147.26,348.194,146.067z"/>
	</g>
</g>
<g>
	<g>
		<g>
			<path d="M255.999,368.022c0,0,0.002,0.002,0.002,0.002C256.057,367.976,256.027,367.999,255.999,368.022z"/>
			<path d="M479.4,199.567c-0.015-0.013-0.03-0.026-0.044-0.04c-5.732-5.207-13.154-8.074-20.906-8.074h-30.261V86.083
				c0-2.655-1.057-5.202-2.936-7.078L349.026,2.922C347.151,1.051,344.61,0,341.962,0H93.813c-5.522,0-10,4.477-10,10v181.454
				h-30.26c-7.753,0-15.175,2.867-20.907,8.074c-0.015,0.014-0.03,0.026-0.044,0.04c-6.434,5.865-10.124,14.22-10.124,22.922
				v258.476c0,8.702,3.69,17.057,10.123,22.92c5.738,5.233,13.18,8.115,20.952,8.115H458.45c1.336,0,2.662-0.085,3.971-0.253
				c0.338-0.043,0.675-0.092,1.012-0.147c0.137-0.022,0.273-0.045,0.41-0.069c0.118-0.021,0.236-0.042,0.353-0.064
				c0.261-0.049,0.52-0.101,0.779-0.157c5.345-1.143,10.321-3.682,14.424-7.425c6.435-5.865,10.125-14.22,10.125-22.922V222.489
				C489.524,213.787,485.834,205.432,479.4,199.567z M428.19,211.454h22.893l-22.893,18.373V211.454z M103.811,20h0.001h234.013
				l70.364,70.23v155.647l-30.098,24.156v-63.077c0-5.523-4.477-10-10-10H143.91c-5.522,0-10,4.477-10,10v63.077l-30.098-24.156V20z
				 M224.863,343.033h62.275l-31.137,24.991c-0.057,0.043-0.03,0.021-0.002-0.002C255.86,367.908,224.965,343.112,224.863,343.033z
				 M199.947,323.032l-46.037-36.95v-69.125h204.182v69.125l-46.037,36.95H199.947z M83.813,211.454v18.373l-22.894-18.373H83.813z
				 M42.534,482.099c-0.038-0.374-0.057-0.752-0.057-1.134V222.489c0-0.063,0.001-0.126,0.002-0.189l173.527,139.27L42.534,482.099z
				 M63.334,492l168.936-117.377l17.471,14.022c1.829,1.467,4.044,2.201,6.26,2.201s4.431-0.734,6.26-2.201l17.471-14.022
				L448.667,492H63.334z M469.524,480.965c0,0.382-0.019,0.76-0.057,1.134L295.996,361.57L469.522,222.3
				c0.001,0.063,0.002,0.126,0.002,0.189V480.965z"/>
		</g>
	</g>
</g>
<g>
</g>
<g>
</g>
<g>
</g>
<g>
</g>
<g>
</g>
<g>
</g>
<g>
</g>
<g>
</g>
<g>
</g>
<g>
</g>
<g>
</g>
<g>
</g>
<g>
</g>
<g>
</g>
<g>
</g>
</svg>
